<mxfile host="app.diagrams.net" modified="2022-03-20T16:01:57.949Z" agent="5.0 (Windows NT 10.0; Win64; x64) AppleWebKit/537.36 (KHTML, like Gecko) Chrome/99.0.4844.74 Safari/537.36" etag="VCY_kJS3MavsmWHT1Lmm" version="17.1.3" type="github">
  <diagram name="Page-1" id="13e1069c-82ec-6db2-03f1-153e76fe0fe0">
    <mxGraphModel dx="847" dy="488" grid="1" gridSize="10" guides="1" tooltips="1" connect="1" arrows="1" fold="1" page="1" pageScale="1" pageWidth="1100" pageHeight="850" background="none" math="0" shadow="0">
      <root>
        <mxCell id="0" />
        <mxCell id="1" parent="0" />
        <mxCell id="7baba1c4bc27f4b0-2" value=":Object" style="shape=umlLifeline;perimeter=lifelinePerimeter;whiteSpace=wrap;html=1;container=1;collapsible=0;recursiveResize=0;outlineConnect=0;rounded=1;shadow=0;comic=0;labelBackgroundColor=none;strokeWidth=1;fontFamily=Verdana;fontSize=12;align=center;" parent="1" vertex="1">
          <mxGeometry x="240" y="80" width="100" height="580" as="geometry" />
        </mxCell>
        <mxCell id="7baba1c4bc27f4b0-10" value="" style="html=1;points=[];perimeter=orthogonalPerimeter;rounded=0;shadow=0;comic=0;labelBackgroundColor=none;strokeWidth=1;fontFamily=Verdana;fontSize=12;align=center;" parent="7baba1c4bc27f4b0-2" vertex="1">
          <mxGeometry x="45" y="100" width="10" height="230" as="geometry" />
        </mxCell>
        <mxCell id="7baba1c4bc27f4b0-3" value=":Object" style="shape=umlLifeline;perimeter=lifelinePerimeter;whiteSpace=wrap;html=1;container=1;collapsible=0;recursiveResize=0;outlineConnect=0;rounded=1;shadow=0;comic=0;labelBackgroundColor=none;strokeWidth=1;fontFamily=Verdana;fontSize=12;align=center;" parent="1" vertex="1">
          <mxGeometry x="400" y="80" width="100" height="580" as="geometry" />
        </mxCell>
        <mxCell id="7baba1c4bc27f4b0-13" value="" style="html=1;points=[];perimeter=orthogonalPerimeter;rounded=0;shadow=0;comic=0;labelBackgroundColor=none;strokeWidth=1;fontFamily=Verdana;fontSize=12;align=center;" parent="7baba1c4bc27f4b0-3" vertex="1">
          <mxGeometry x="45" y="120" width="10" height="200" as="geometry" />
        </mxCell>
        <mxCell id="7baba1c4bc27f4b0-4" value=":Object" style="shape=umlLifeline;perimeter=lifelinePerimeter;whiteSpace=wrap;html=1;container=1;collapsible=0;recursiveResize=0;outlineConnect=0;rounded=1;shadow=0;comic=0;labelBackgroundColor=none;strokeWidth=1;fontFamily=Verdana;fontSize=12;align=center;" parent="1" vertex="1">
          <mxGeometry x="540" y="80" width="100" height="580" as="geometry" />
        </mxCell>
        <mxCell id="7baba1c4bc27f4b0-5" value=":Object" style="shape=umlLifeline;perimeter=lifelinePerimeter;whiteSpace=wrap;html=1;container=1;collapsible=0;recursiveResize=0;outlineConnect=0;rounded=1;shadow=0;comic=0;labelBackgroundColor=none;strokeWidth=1;fontFamily=Verdana;fontSize=12;align=center;" parent="1" vertex="1">
          <mxGeometry x="680" y="80" width="100" height="580" as="geometry" />
        </mxCell>
        <mxCell id="7baba1c4bc27f4b0-6" value=":Object" style="shape=umlLifeline;perimeter=lifelinePerimeter;whiteSpace=wrap;html=1;container=1;collapsible=0;recursiveResize=0;outlineConnect=0;rounded=1;shadow=0;comic=0;labelBackgroundColor=none;strokeWidth=1;fontFamily=Verdana;fontSize=12;align=center;" parent="1" vertex="1">
          <mxGeometry x="820" y="80" width="100" height="580" as="geometry" />
        </mxCell>
        <mxCell id="7baba1c4bc27f4b0-7" value=":Object" style="shape=umlLifeline;perimeter=lifelinePerimeter;whiteSpace=wrap;html=1;container=1;collapsible=0;recursiveResize=0;outlineConnect=0;rounded=1;shadow=0;comic=0;labelBackgroundColor=none;strokeWidth=1;fontFamily=Verdana;fontSize=12;align=center;" parent="1" vertex="1">
          <mxGeometry x="960" y="80" width="100" height="580" as="geometry" />
        </mxCell>
        <mxCell id="7baba1c4bc27f4b0-8" value=":Object" style="shape=umlLifeline;perimeter=lifelinePerimeter;whiteSpace=wrap;html=1;container=1;collapsible=0;recursiveResize=0;outlineConnect=0;rounded=1;shadow=0;comic=0;labelBackgroundColor=none;strokeWidth=1;fontFamily=Verdana;fontSize=12;align=center;" parent="1" vertex="1">
          <mxGeometry x="100" y="80" width="100" height="580" as="geometry" />
        </mxCell>
        <mxCell id="7baba1c4bc27f4b0-9" value="" style="html=1;points=[];perimeter=orthogonalPerimeter;rounded=0;shadow=0;comic=0;labelBackgroundColor=none;strokeWidth=1;fontFamily=Verdana;fontSize=12;align=center;" parent="7baba1c4bc27f4b0-8" vertex="1">
          <mxGeometry x="45" y="100" width="10" height="440" as="geometry" />
        </mxCell>
        <mxCell id="7baba1c4bc27f4b0-16" value="" style="html=1;points=[];perimeter=orthogonalPerimeter;rounded=0;shadow=0;comic=0;labelBackgroundColor=none;strokeWidth=1;fontFamily=Verdana;fontSize=12;align=center;" parent="1" vertex="1">
          <mxGeometry x="585" y="220" width="10" height="180" as="geometry" />
        </mxCell>
        <mxCell id="7baba1c4bc27f4b0-17" value="dispatch" style="html=1;verticalAlign=bottom;endArrow=block;labelBackgroundColor=none;fontFamily=Verdana;fontSize=12;edgeStyle=elbowEdgeStyle;elbow=vertical;" parent="1" source="7baba1c4bc27f4b0-13" target="7baba1c4bc27f4b0-16" edge="1">
          <mxGeometry relative="1" as="geometry">
            <mxPoint x="510" y="220" as="sourcePoint" />
            <Array as="points">
              <mxPoint x="460" y="220" />
            </Array>
          </mxGeometry>
        </mxCell>
        <mxCell id="7baba1c4bc27f4b0-19" value="" style="html=1;points=[];perimeter=orthogonalPerimeter;rounded=0;shadow=0;comic=0;labelBackgroundColor=none;strokeWidth=1;fontFamily=Verdana;fontSize=12;align=center;" parent="1" vertex="1">
          <mxGeometry x="725" y="230" width="10" height="40" as="geometry" />
        </mxCell>
        <mxCell id="7baba1c4bc27f4b0-20" value="dispatch" style="html=1;verticalAlign=bottom;endArrow=block;entryX=0;entryY=0;labelBackgroundColor=none;fontFamily=Verdana;fontSize=12;edgeStyle=elbowEdgeStyle;elbow=vertical;" parent="1" source="7baba1c4bc27f4b0-16" target="7baba1c4bc27f4b0-19" edge="1">
          <mxGeometry relative="1" as="geometry">
            <mxPoint x="650" y="230" as="sourcePoint" />
          </mxGeometry>
        </mxCell>
        <mxCell id="7baba1c4bc27f4b0-21" value="return" style="html=1;verticalAlign=bottom;endArrow=open;dashed=1;endSize=8;labelBackgroundColor=none;fontFamily=Verdana;fontSize=12;edgeStyle=elbowEdgeStyle;elbow=vertical;" parent="1" source="7baba1c4bc27f4b0-19" target="7baba1c4bc27f4b0-16" edge="1">
          <mxGeometry relative="1" as="geometry">
            <mxPoint x="650" y="306" as="targetPoint" />
            <Array as="points">
              <mxPoint x="670" y="260" />
              <mxPoint x="700" y="260" />
            </Array>
          </mxGeometry>
        </mxCell>
        <mxCell id="7baba1c4bc27f4b0-22" value="" style="html=1;points=[];perimeter=orthogonalPerimeter;rounded=0;shadow=0;comic=0;labelBackgroundColor=none;strokeWidth=1;fontFamily=Verdana;fontSize=12;align=center;" parent="1" vertex="1">
          <mxGeometry x="585" y="440" width="10" height="140" as="geometry" />
        </mxCell>
        <mxCell id="7baba1c4bc27f4b0-23" value="dispatch" style="html=1;verticalAlign=bottom;endArrow=block;entryX=0;entryY=0;labelBackgroundColor=none;fontFamily=Verdana;fontSize=12;" parent="1" source="7baba1c4bc27f4b0-9" target="7baba1c4bc27f4b0-22" edge="1">
          <mxGeometry relative="1" as="geometry">
            <mxPoint x="510" y="420" as="sourcePoint" />
          </mxGeometry>
        </mxCell>
        <mxCell id="7baba1c4bc27f4b0-25" value="" style="html=1;points=[];perimeter=orthogonalPerimeter;rounded=0;shadow=0;comic=0;labelBackgroundColor=none;strokeColor=#000000;strokeWidth=1;fillColor=#FFFFFF;fontFamily=Verdana;fontSize=12;fontColor=#000000;align=center;" parent="1" vertex="1">
          <mxGeometry x="1005" y="460" width="10" height="30" as="geometry" />
        </mxCell>
        <mxCell id="7baba1c4bc27f4b0-26" value="dispatch" style="html=1;verticalAlign=bottom;endArrow=block;entryX=0;entryY=0;labelBackgroundColor=none;fontFamily=Verdana;fontSize=12;" parent="1" source="7baba1c4bc27f4b0-22" target="7baba1c4bc27f4b0-25" edge="1">
          <mxGeometry relative="1" as="geometry">
            <mxPoint x="930" y="340" as="sourcePoint" />
          </mxGeometry>
        </mxCell>
        <mxCell id="7baba1c4bc27f4b0-27" value="return" style="html=1;verticalAlign=bottom;endArrow=open;dashed=1;endSize=8;exitX=0;exitY=0.95;labelBackgroundColor=none;fontFamily=Verdana;fontSize=12;" parent="1" source="7baba1c4bc27f4b0-25" target="7baba1c4bc27f4b0-22" edge="1">
          <mxGeometry relative="1" as="geometry">
            <mxPoint x="930" y="416" as="targetPoint" />
          </mxGeometry>
        </mxCell>
        <mxCell id="7baba1c4bc27f4b0-28" value="" style="html=1;points=[];perimeter=orthogonalPerimeter;rounded=0;shadow=0;comic=0;labelBackgroundColor=none;strokeWidth=1;fontFamily=Verdana;fontSize=12;align=center;" parent="1" vertex="1">
          <mxGeometry x="870" y="550" width="10" height="60" as="geometry" />
        </mxCell>
        <mxCell id="7baba1c4bc27f4b0-29" value="dispatch" style="html=1;verticalAlign=bottom;endArrow=block;entryX=0;entryY=0;labelBackgroundColor=none;fontFamily=Verdana;fontSize=12;edgeStyle=elbowEdgeStyle;elbow=vertical;" parent="1" source="7baba1c4bc27f4b0-37" target="7baba1c4bc27f4b0-28" edge="1">
          <mxGeometry relative="1" as="geometry">
            <mxPoint x="800" y="550" as="sourcePoint" />
          </mxGeometry>
        </mxCell>
        <mxCell id="7baba1c4bc27f4b0-30" value="return" style="html=1;verticalAlign=bottom;endArrow=open;dashed=1;endSize=8;labelBackgroundColor=none;fontFamily=Verdana;fontSize=12;edgeStyle=elbowEdgeStyle;elbow=vertical;" parent="1" source="7baba1c4bc27f4b0-28" target="7baba1c4bc27f4b0-9" edge="1">
          <mxGeometry relative="1" as="geometry">
            <mxPoint x="800" y="626" as="targetPoint" />
            <Array as="points">
              <mxPoint x="570" y="600" />
            </Array>
          </mxGeometry>
        </mxCell>
        <mxCell id="7baba1c4bc27f4b0-11" value="dispatch" style="html=1;verticalAlign=bottom;endArrow=block;entryX=0;entryY=0;labelBackgroundColor=none;fontFamily=Verdana;fontSize=12;edgeStyle=elbowEdgeStyle;elbow=vertical;" parent="1" source="7baba1c4bc27f4b0-9" target="7baba1c4bc27f4b0-10" edge="1">
          <mxGeometry relative="1" as="geometry">
            <mxPoint x="220" y="190" as="sourcePoint" />
          </mxGeometry>
        </mxCell>
        <mxCell id="7baba1c4bc27f4b0-14" value="dispatch" style="html=1;verticalAlign=bottom;endArrow=block;entryX=0;entryY=0;labelBackgroundColor=none;fontFamily=Verdana;fontSize=12;edgeStyle=elbowEdgeStyle;elbow=vertical;" parent="1" source="7baba1c4bc27f4b0-10" target="7baba1c4bc27f4b0-13" edge="1">
          <mxGeometry relative="1" as="geometry">
            <mxPoint x="370" y="200" as="sourcePoint" />
          </mxGeometry>
        </mxCell>
        <mxCell id="7baba1c4bc27f4b0-34" value="" style="html=1;points=[];perimeter=orthogonalPerimeter;rounded=0;shadow=0;comic=0;labelBackgroundColor=none;strokeWidth=1;fontFamily=Verdana;fontSize=12;align=center;" parent="1" vertex="1">
          <mxGeometry x="590" y="300" width="10" height="70" as="geometry" />
        </mxCell>
        <mxCell id="7baba1c4bc27f4b0-35" value="dispatch" style="html=1;verticalAlign=bottom;endArrow=block;labelBackgroundColor=none;fontFamily=Verdana;fontSize=12;elbow=vertical;edgeStyle=orthogonalEdgeStyle;curved=1;entryX=1;entryY=0.286;entryPerimeter=0;exitX=1.038;exitY=0.345;exitPerimeter=0;" parent="1" source="7baba1c4bc27f4b0-16" target="7baba1c4bc27f4b0-34" edge="1">
          <mxGeometry relative="1" as="geometry">
            <mxPoint x="465" y="230" as="sourcePoint" />
            <mxPoint x="595" y="230" as="targetPoint" />
            <Array as="points">
              <mxPoint x="650" y="282" />
              <mxPoint x="650" y="320" />
            </Array>
          </mxGeometry>
        </mxCell>
        <mxCell id="7baba1c4bc27f4b0-36" value="dispatch" style="html=1;verticalAlign=bottom;endArrow=block;labelBackgroundColor=none;fontFamily=Verdana;fontSize=12;elbow=vertical;edgeStyle=orthogonalEdgeStyle;curved=1;exitX=1.066;exitY=0.713;exitPerimeter=0;" parent="1" source="7baba1c4bc27f4b0-34" edge="1">
          <mxGeometry relative="1" as="geometry">
            <mxPoint x="610.3333333333333" y="350" as="sourcePoint" />
            <mxPoint x="595" y="389" as="targetPoint" />
            <Array as="points">
              <mxPoint x="650" y="350" />
              <mxPoint x="650" y="389" />
            </Array>
          </mxGeometry>
        </mxCell>
        <mxCell id="7baba1c4bc27f4b0-37" value="" style="html=1;points=[];perimeter=orthogonalPerimeter;rounded=0;shadow=0;comic=0;labelBackgroundColor=none;strokeWidth=1;fontFamily=Verdana;fontSize=12;align=center;" parent="1" vertex="1">
          <mxGeometry x="590" y="520" width="10" height="40" as="geometry" />
        </mxCell>
        <mxCell id="7baba1c4bc27f4b0-39" value="dispatch" style="html=1;verticalAlign=bottom;endArrow=block;labelBackgroundColor=none;fontFamily=Verdana;fontSize=12;elbow=vertical;edgeStyle=orthogonalEdgeStyle;curved=1;entryX=1;entryY=0.286;entryPerimeter=0;exitX=1.038;exitY=0.345;exitPerimeter=0;" parent="1" edge="1">
          <mxGeometry relative="1" as="geometry">
            <mxPoint x="595.3333333333335" y="501" as="sourcePoint" />
            <mxPoint x="600.3333333333335" y="539.3333333333334" as="targetPoint" />
            <Array as="points">
              <mxPoint x="650" y="501" />
              <mxPoint x="650" y="539" />
            </Array>
          </mxGeometry>
        </mxCell>
        <mxCell id="7baba1c4bc27f4b0-40" value="Note" style="shape=note;whiteSpace=wrap;html=1;size=14;verticalAlign=top;align=left;spacingTop=-6;rounded=0;shadow=0;comic=0;labelBackgroundColor=none;strokeWidth=1;fontFamily=Verdana;fontSize=12" parent="1" vertex="1">
          <mxGeometry x="100" y="30" width="100" height="35" as="geometry" />
        </mxCell>
        <mxCell id="7baba1c4bc27f4b0-41" value="Note" style="shape=note;whiteSpace=wrap;html=1;size=14;verticalAlign=top;align=left;spacingTop=-6;rounded=0;shadow=0;comic=0;labelBackgroundColor=none;strokeWidth=1;fontFamily=Verdana;fontSize=12" parent="1" vertex="1">
          <mxGeometry x="240" y="30" width="100" height="35" as="geometry" />
        </mxCell>
        <mxCell id="7baba1c4bc27f4b0-42" value="Note" style="shape=note;whiteSpace=wrap;html=1;size=14;verticalAlign=top;align=left;spacingTop=-6;rounded=0;shadow=0;comic=0;labelBackgroundColor=none;strokeWidth=1;fontFamily=Verdana;fontSize=12" parent="1" vertex="1">
          <mxGeometry x="400" y="30" width="100" height="35" as="geometry" />
        </mxCell>
        <mxCell id="7baba1c4bc27f4b0-43" value="Note" style="shape=note;whiteSpace=wrap;html=1;size=14;verticalAlign=top;align=left;spacingTop=-6;rounded=0;shadow=0;comic=0;labelBackgroundColor=none;strokeWidth=1;fontFamily=Verdana;fontSize=12" parent="1" vertex="1">
          <mxGeometry x="540" y="30" width="100" height="35" as="geometry" />
        </mxCell>
        <mxCell id="7baba1c4bc27f4b0-44" value="Note" style="shape=note;whiteSpace=wrap;html=1;size=14;verticalAlign=top;align=left;spacingTop=-6;rounded=0;shadow=0;comic=0;labelBackgroundColor=none;strokeWidth=1;fontFamily=Verdana;fontSize=12" parent="1" vertex="1">
          <mxGeometry x="680" y="30" width="100" height="35" as="geometry" />
        </mxCell>
        <mxCell id="7baba1c4bc27f4b0-45" value="Note" style="shape=note;whiteSpace=wrap;html=1;size=14;verticalAlign=top;align=left;spacingTop=-6;rounded=0;shadow=0;comic=0;labelBackgroundColor=none;strokeWidth=1;fontFamily=Verdana;fontSize=12" parent="1" vertex="1">
          <mxGeometry x="820" y="30" width="100" height="35" as="geometry" />
        </mxCell>
        <mxCell id="7baba1c4bc27f4b0-46" value="Note" style="shape=note;whiteSpace=wrap;html=1;size=14;verticalAlign=top;align=left;spacingTop=-6;rounded=0;shadow=0;comic=0;labelBackgroundColor=none;strokeWidth=1;fontFamily=Verdana;fontSize=12" parent="1" vertex="1">
          <mxGeometry x="960" y="30" width="100" height="35" as="geometry" />
        </mxCell>
        <mxCell id="DIR0Ms290Oy7EGT7Wssu-2" value=":IOpenApiSbRelationService" style="shape=umlLifeline;perimeter=lifelinePerimeter;whiteSpace=wrap;html=1;container=1;collapsible=0;recursiveResize=0;outlineConnect=0;" vertex="1" parent="1">
          <mxGeometry x="160" y="880" width="100" height="1080" as="geometry" />
        </mxCell>
        <mxCell id="DIR0Ms290Oy7EGT7Wssu-3" value="" style="html=1;points=[];perimeter=orthogonalPerimeter;" vertex="1" parent="DIR0Ms290Oy7EGT7Wssu-2">
          <mxGeometry x="44" y="78" width="10" height="300" as="geometry" />
        </mxCell>
        <mxCell id="DIR0Ms290Oy7EGT7Wssu-4" value="qyxx" style="html=1;verticalAlign=bottom;endArrow=block;entryX=0;entryY=0;rounded=0;" edge="1" target="DIR0Ms290Oy7EGT7Wssu-3" parent="DIR0Ms290Oy7EGT7Wssu-2">
          <mxGeometry relative="1" as="geometry">
            <mxPoint x="-26" y="78" as="sourcePoint" />
          </mxGeometry>
        </mxCell>
        <mxCell id="DIR0Ms290Oy7EGT7Wssu-5" value="taskId" style="html=1;verticalAlign=bottom;endArrow=open;dashed=1;endSize=8;exitX=0;exitY=0.95;rounded=0;" edge="1" source="DIR0Ms290Oy7EGT7Wssu-3" parent="DIR0Ms290Oy7EGT7Wssu-2">
          <mxGeometry relative="1" as="geometry">
            <mxPoint x="-40" y="363" as="targetPoint" />
          </mxGeometry>
        </mxCell>
        <mxCell id="DIR0Ms290Oy7EGT7Wssu-22" value="" style="html=1;points=[];perimeter=orthogonalPerimeter;" vertex="1" parent="DIR0Ms290Oy7EGT7Wssu-2">
          <mxGeometry x="44" y="480" width="10" height="570" as="geometry" />
        </mxCell>
        <mxCell id="DIR0Ms290Oy7EGT7Wssu-23" value="result" style="html=1;verticalAlign=bottom;endArrow=block;entryX=0;entryY=0;rounded=0;" edge="1" target="DIR0Ms290Oy7EGT7Wssu-22" parent="DIR0Ms290Oy7EGT7Wssu-2">
          <mxGeometry relative="1" as="geometry">
            <mxPoint x="-26" y="480" as="sourcePoint" />
          </mxGeometry>
        </mxCell>
        <mxCell id="DIR0Ms290Oy7EGT7Wssu-24" value="return" style="html=1;verticalAlign=bottom;endArrow=open;dashed=1;endSize=8;exitX=-0.253;exitY=0.966;rounded=0;exitDx=0;exitDy=0;exitPerimeter=0;" edge="1" source="DIR0Ms290Oy7EGT7Wssu-22" parent="DIR0Ms290Oy7EGT7Wssu-2">
          <mxGeometry relative="1" as="geometry">
            <mxPoint x="-80" y="1031" as="targetPoint" />
            <mxPoint x="44" y="556.9999999999998" as="sourcePoint" />
          </mxGeometry>
        </mxCell>
        <mxCell id="DIR0Ms290Oy7EGT7Wssu-6" value=":IEdfJobService" style="shape=umlLifeline;perimeter=lifelinePerimeter;whiteSpace=wrap;html=1;container=1;collapsible=0;recursiveResize=0;outlineConnect=0;" vertex="1" parent="1">
          <mxGeometry x="311" y="880" width="100" height="300" as="geometry" />
        </mxCell>
        <mxCell id="DIR0Ms290Oy7EGT7Wssu-7" value="" style="html=1;points=[];perimeter=orthogonalPerimeter;" vertex="1" parent="DIR0Ms290Oy7EGT7Wssu-6">
          <mxGeometry x="45" y="100" width="10" height="200" as="geometry" />
        </mxCell>
        <mxCell id="DIR0Ms290Oy7EGT7Wssu-19" value="" style="html=1;points=[];perimeter=orthogonalPerimeter;" vertex="1" parent="DIR0Ms290Oy7EGT7Wssu-6">
          <mxGeometry x="50" y="220" width="10" height="40" as="geometry" />
        </mxCell>
        <mxCell id="DIR0Ms290Oy7EGT7Wssu-20" value="&lt;span style=&quot;text-align: center&quot;&gt;create&lt;/span&gt;" style="edgeStyle=orthogonalEdgeStyle;html=1;align=left;spacingLeft=2;endArrow=block;rounded=0;entryX=1;entryY=0;" edge="1" target="DIR0Ms290Oy7EGT7Wssu-19" parent="DIR0Ms290Oy7EGT7Wssu-6">
          <mxGeometry relative="1" as="geometry">
            <mxPoint x="55" y="200" as="sourcePoint" />
            <Array as="points">
              <mxPoint x="85" y="200" />
            </Array>
          </mxGeometry>
        </mxCell>
        <mxCell id="DIR0Ms290Oy7EGT7Wssu-8" value="createDelayedJob" style="html=1;verticalAlign=bottom;endArrow=block;entryX=0;entryY=0;rounded=0;" edge="1" target="DIR0Ms290Oy7EGT7Wssu-7" parent="1" source="DIR0Ms290Oy7EGT7Wssu-2">
          <mxGeometry relative="1" as="geometry">
            <mxPoint x="260" y="980" as="sourcePoint" />
          </mxGeometry>
        </mxCell>
        <mxCell id="DIR0Ms290Oy7EGT7Wssu-9" value="EdfJobDto" style="html=1;verticalAlign=bottom;endArrow=open;dashed=1;endSize=8;exitX=0;exitY=0.95;rounded=0;" edge="1" source="DIR0Ms290Oy7EGT7Wssu-7" parent="1" target="DIR0Ms290Oy7EGT7Wssu-2">
          <mxGeometry relative="1" as="geometry">
            <mxPoint x="355" y="1056" as="targetPoint" />
          </mxGeometry>
        </mxCell>
        <mxCell id="DIR0Ms290Oy7EGT7Wssu-10" value=":IEdfJob&lt;span style=&quot;font-size: 11px ; background-color: rgb(255 , 255 , 255)&quot;&gt;History&lt;/span&gt;Service" style="shape=umlLifeline;perimeter=lifelinePerimeter;whiteSpace=wrap;html=1;container=1;collapsible=0;recursiveResize=0;outlineConnect=0;" vertex="1" parent="1">
          <mxGeometry x="448" y="880" width="100" height="640" as="geometry" />
        </mxCell>
        <mxCell id="DIR0Ms290Oy7EGT7Wssu-14" value="" style="html=1;points=[];perimeter=orthogonalPerimeter;" vertex="1" parent="DIR0Ms290Oy7EGT7Wssu-10">
          <mxGeometry x="44" y="120" width="10" height="40" as="geometry" />
        </mxCell>
        <mxCell id="DIR0Ms290Oy7EGT7Wssu-25" value="" style="html=1;points=[];perimeter=orthogonalPerimeter;" vertex="1" parent="DIR0Ms290Oy7EGT7Wssu-10">
          <mxGeometry x="45" y="500" width="10" height="40" as="geometry" />
        </mxCell>
        <mxCell id="DIR0Ms290Oy7EGT7Wssu-15" value="create" style="html=1;verticalAlign=bottom;endArrow=block;entryX=0;entryY=0;rounded=0;" edge="1" target="DIR0Ms290Oy7EGT7Wssu-14" parent="1" source="DIR0Ms290Oy7EGT7Wssu-6">
          <mxGeometry relative="1" as="geometry">
            <mxPoint x="479" y="1000" as="sourcePoint" />
          </mxGeometry>
        </mxCell>
        <mxCell id="DIR0Ms290Oy7EGT7Wssu-16" value="EdfJobHistoryDto" style="html=1;verticalAlign=bottom;endArrow=open;dashed=1;endSize=8;exitX=0;exitY=0.95;rounded=0;" edge="1" source="DIR0Ms290Oy7EGT7Wssu-14" parent="1" target="DIR0Ms290Oy7EGT7Wssu-6">
          <mxGeometry relative="1" as="geometry">
            <mxPoint x="479" y="1076" as="targetPoint" />
          </mxGeometry>
        </mxCell>
        <mxCell id="DIR0Ms290Oy7EGT7Wssu-21" value="POST&amp;nbsp;&amp;nbsp;/SBRelation/qyxx&amp;nbsp;" style="text;html=1;strokeColor=none;fillColor=none;align=center;verticalAlign=middle;whiteSpace=wrap;rounded=0;" vertex="1" parent="1">
          <mxGeometry x="100" y="987" width="60" height="30" as="geometry" />
        </mxCell>
        <mxCell id="DIR0Ms290Oy7EGT7Wssu-26" value="queryByPrimaryKey" style="html=1;verticalAlign=bottom;endArrow=block;entryX=0;entryY=0;rounded=0;" edge="1" target="DIR0Ms290Oy7EGT7Wssu-25" parent="1" source="DIR0Ms290Oy7EGT7Wssu-2">
          <mxGeometry relative="1" as="geometry">
            <mxPoint x="527" y="1380" as="sourcePoint" />
          </mxGeometry>
        </mxCell>
        <mxCell id="DIR0Ms290Oy7EGT7Wssu-27" value="EdfJobHistoryDto" style="html=1;verticalAlign=bottom;endArrow=open;dashed=1;endSize=8;exitX=0;exitY=0.95;rounded=0;" edge="1" source="DIR0Ms290Oy7EGT7Wssu-25" parent="1" target="DIR0Ms290Oy7EGT7Wssu-2">
          <mxGeometry relative="1" as="geometry">
            <mxPoint x="527" y="1456" as="targetPoint" />
          </mxGeometry>
        </mxCell>
        <mxCell id="DIR0Ms290Oy7EGT7Wssu-28" value=":ResultStrategyContext" style="shape=umlLifeline;perimeter=lifelinePerimeter;whiteSpace=wrap;html=1;container=1;collapsible=0;recursiveResize=0;outlineConnect=0;" vertex="1" parent="1">
          <mxGeometry x="525" y="1275" width="116" height="300" as="geometry" />
        </mxCell>
        <mxCell id="DIR0Ms290Oy7EGT7Wssu-29" value="" style="html=1;points=[];perimeter=orthogonalPerimeter;" vertex="1" parent="DIR0Ms290Oy7EGT7Wssu-28">
          <mxGeometry x="54" y="190" width="10" height="40" as="geometry" />
        </mxCell>
        <mxCell id="DIR0Ms290Oy7EGT7Wssu-30" value="getStrategy" style="html=1;verticalAlign=bottom;endArrow=block;entryX=0;entryY=0;rounded=0;" edge="1" target="DIR0Ms290Oy7EGT7Wssu-29" parent="1" source="DIR0Ms290Oy7EGT7Wssu-2">
          <mxGeometry relative="1" as="geometry">
            <mxPoint x="690" y="1450" as="sourcePoint" />
          </mxGeometry>
        </mxCell>
        <mxCell id="DIR0Ms290Oy7EGT7Wssu-31" value="ISbReltationResultStrategy" style="html=1;verticalAlign=bottom;endArrow=open;dashed=1;endSize=8;exitX=0;exitY=0.95;rounded=0;" edge="1" source="DIR0Ms290Oy7EGT7Wssu-29" parent="1" target="DIR0Ms290Oy7EGT7Wssu-2">
          <mxGeometry relative="1" as="geometry">
            <mxPoint x="690" y="1526" as="targetPoint" />
          </mxGeometry>
        </mxCell>
        <mxCell id="DIR0Ms290Oy7EGT7Wssu-32" value=":QyxxResultServiceImpl" style="shape=umlLifeline;perimeter=lifelinePerimeter;whiteSpace=wrap;html=1;container=1;collapsible=0;recursiveResize=0;outlineConnect=0;" vertex="1" parent="1">
          <mxGeometry x="675" y="1275" width="100" height="600" as="geometry" />
        </mxCell>
        <mxCell id="DIR0Ms290Oy7EGT7Wssu-34" value="" style="html=1;points=[];perimeter=orthogonalPerimeter;" vertex="1" parent="DIR0Ms290Oy7EGT7Wssu-32">
          <mxGeometry x="45" y="280" width="10" height="320" as="geometry" />
        </mxCell>
        <mxCell id="DIR0Ms290Oy7EGT7Wssu-62" value="" style="html=1;points=[];perimeter=orthogonalPerimeter;" vertex="1" parent="DIR0Ms290Oy7EGT7Wssu-32">
          <mxGeometry x="49.5" y="525" width="10" height="40" as="geometry" />
        </mxCell>
        <mxCell id="DIR0Ms290Oy7EGT7Wssu-63" value="updateOpenSjStateByResult" style="edgeStyle=orthogonalEdgeStyle;html=1;align=left;spacingLeft=2;endArrow=block;rounded=0;entryX=1;entryY=0;" edge="1" target="DIR0Ms290Oy7EGT7Wssu-62" parent="DIR0Ms290Oy7EGT7Wssu-32">
          <mxGeometry relative="1" as="geometry">
            <mxPoint x="54.5" y="505" as="sourcePoint" />
            <Array as="points">
              <mxPoint x="84.5" y="505" />
            </Array>
          </mxGeometry>
        </mxCell>
        <mxCell id="DIR0Ms290Oy7EGT7Wssu-35" value="result" style="html=1;verticalAlign=bottom;endArrow=block;entryX=0;entryY=0;rounded=0;" edge="1" target="DIR0Ms290Oy7EGT7Wssu-34" parent="1" source="DIR0Ms290Oy7EGT7Wssu-2">
          <mxGeometry relative="1" as="geometry">
            <mxPoint x="845" y="1540" as="sourcePoint" />
          </mxGeometry>
        </mxCell>
        <mxCell id="DIR0Ms290Oy7EGT7Wssu-36" value="return" style="html=1;verticalAlign=bottom;endArrow=open;dashed=1;endSize=8;exitX=0;exitY=0.95;rounded=0;" edge="1" source="DIR0Ms290Oy7EGT7Wssu-34" parent="1" target="DIR0Ms290Oy7EGT7Wssu-2">
          <mxGeometry relative="1" as="geometry">
            <mxPoint x="845" y="1616" as="targetPoint" />
          </mxGeometry>
        </mxCell>
        <mxCell id="DIR0Ms290Oy7EGT7Wssu-37" value=":IRobotTransferService" style="shape=umlLifeline;perimeter=lifelinePerimeter;whiteSpace=wrap;html=1;container=1;collapsible=0;recursiveResize=0;outlineConnect=0;" vertex="1" parent="1">
          <mxGeometry x="836" y="1275" width="100" height="665" as="geometry" />
        </mxCell>
        <mxCell id="DIR0Ms290Oy7EGT7Wssu-39" value="" style="html=1;points=[];perimeter=orthogonalPerimeter;" vertex="1" parent="DIR0Ms290Oy7EGT7Wssu-37">
          <mxGeometry x="44" y="299" width="10" height="181" as="geometry" />
        </mxCell>
        <mxCell id="DIR0Ms290Oy7EGT7Wssu-40" value="getNsrxxResultByParam" style="html=1;verticalAlign=bottom;endArrow=block;entryX=0;entryY=0;rounded=0;" edge="1" target="DIR0Ms290Oy7EGT7Wssu-39" parent="1" source="DIR0Ms290Oy7EGT7Wssu-32">
          <mxGeometry relative="1" as="geometry">
            <mxPoint x="810" y="1560" as="sourcePoint" />
          </mxGeometry>
        </mxCell>
        <mxCell id="DIR0Ms290Oy7EGT7Wssu-41" value="return" style="html=1;verticalAlign=bottom;endArrow=open;dashed=1;endSize=8;exitX=0;exitY=0.95;rounded=0;" edge="1" source="DIR0Ms290Oy7EGT7Wssu-39" parent="1" target="DIR0Ms290Oy7EGT7Wssu-32">
          <mxGeometry relative="1" as="geometry">
            <mxPoint x="810" y="1636" as="targetPoint" />
          </mxGeometry>
        </mxCell>
        <mxCell id="DIR0Ms290Oy7EGT7Wssu-42" value="" style="html=1;points=[];perimeter=orthogonalPerimeter;" vertex="1" parent="1">
          <mxGeometry x="885" y="1620" width="10" height="110" as="geometry" />
        </mxCell>
        <mxCell id="DIR0Ms290Oy7EGT7Wssu-43" value="getResponseStrByOther" style="edgeStyle=orthogonalEdgeStyle;html=1;align=left;spacingLeft=2;endArrow=block;rounded=0;entryX=1;entryY=0;" edge="1" target="DIR0Ms290Oy7EGT7Wssu-42" parent="1">
          <mxGeometry relative="1" as="geometry">
            <mxPoint x="890" y="1591" as="sourcePoint" />
            <Array as="points">
              <mxPoint x="920" y="1591" />
            </Array>
          </mxGeometry>
        </mxCell>
        <mxCell id="DIR0Ms290Oy7EGT7Wssu-44" value=":IRobotSdk" style="shape=umlLifeline;perimeter=lifelinePerimeter;whiteSpace=wrap;html=1;container=1;collapsible=0;recursiveResize=0;outlineConnect=0;" vertex="1" parent="1">
          <mxGeometry x="990" y="1275" width="80" height="485" as="geometry" />
        </mxCell>
        <mxCell id="DIR0Ms290Oy7EGT7Wssu-46" value="" style="html=1;points=[];perimeter=orthogonalPerimeter;" vertex="1" parent="DIR0Ms290Oy7EGT7Wssu-44">
          <mxGeometry x="36" y="374" width="10" height="66" as="geometry" />
        </mxCell>
        <mxCell id="DIR0Ms290Oy7EGT7Wssu-47" value="queryResult" style="html=1;verticalAlign=bottom;endArrow=block;entryX=0;entryY=0;rounded=0;" edge="1" target="DIR0Ms290Oy7EGT7Wssu-46" parent="1">
          <mxGeometry relative="1" as="geometry">
            <mxPoint x="884.25" y="1649" as="sourcePoint" />
          </mxGeometry>
        </mxCell>
        <mxCell id="DIR0Ms290Oy7EGT7Wssu-48" value="return" style="html=1;verticalAlign=bottom;endArrow=open;dashed=1;endSize=8;exitX=0;exitY=0.95;rounded=0;" edge="1" source="DIR0Ms290Oy7EGT7Wssu-46" parent="1">
          <mxGeometry relative="1" as="geometry">
            <mxPoint x="883.5" y="1711.6999999999998" as="targetPoint" />
          </mxGeometry>
        </mxCell>
        <mxCell id="DIR0Ms290Oy7EGT7Wssu-49" value=":TaskScheduleUtil" style="shape=umlLifeline;perimeter=lifelinePerimeter;whiteSpace=wrap;html=1;container=1;collapsible=0;recursiveResize=0;outlineConnect=0;" vertex="1" parent="1">
          <mxGeometry x="1097" y="1275" width="80" height="485" as="geometry" />
        </mxCell>
        <mxCell id="DIR0Ms290Oy7EGT7Wssu-51" value="" style="html=1;points=[];perimeter=orthogonalPerimeter;" vertex="1" parent="DIR0Ms290Oy7EGT7Wssu-49">
          <mxGeometry x="36.75" y="384" width="10" height="46" as="geometry" />
        </mxCell>
        <mxCell id="DIR0Ms290Oy7EGT7Wssu-52" value="queryResult" style="html=1;verticalAlign=bottom;endArrow=block;entryX=0;entryY=0;rounded=0;" edge="1" parent="1" target="DIR0Ms290Oy7EGT7Wssu-51" source="DIR0Ms290Oy7EGT7Wssu-44">
          <mxGeometry relative="1" as="geometry">
            <mxPoint x="1064.25" y="1659" as="sourcePoint" />
          </mxGeometry>
        </mxCell>
        <mxCell id="DIR0Ms290Oy7EGT7Wssu-53" value="return" style="html=1;verticalAlign=bottom;endArrow=open;dashed=1;endSize=8;exitX=0;exitY=0.95;rounded=0;" edge="1" parent="1" source="DIR0Ms290Oy7EGT7Wssu-51" target="DIR0Ms290Oy7EGT7Wssu-44">
          <mxGeometry relative="1" as="geometry">
            <mxPoint x="1064.25" y="1697" as="targetPoint" />
          </mxGeometry>
        </mxCell>
        <mxCell id="DIR0Ms290Oy7EGT7Wssu-54" value=":TaskScheduleInterface" style="shape=umlLifeline;perimeter=lifelinePerimeter;whiteSpace=wrap;html=1;container=1;collapsible=0;recursiveResize=0;outlineConnect=0;" vertex="1" parent="1">
          <mxGeometry x="1212" y="1275" width="80" height="485" as="geometry" />
        </mxCell>
        <mxCell id="DIR0Ms290Oy7EGT7Wssu-57" value="" style="html=1;points=[];perimeter=orthogonalPerimeter;" vertex="1" parent="DIR0Ms290Oy7EGT7Wssu-54">
          <mxGeometry x="35" y="393" width="10" height="27" as="geometry" />
        </mxCell>
        <mxCell id="DIR0Ms290Oy7EGT7Wssu-58" value="queryResult" style="html=1;verticalAlign=bottom;endArrow=block;entryX=0;entryY=0;rounded=0;" edge="1" parent="1" target="DIR0Ms290Oy7EGT7Wssu-57" source="DIR0Ms290Oy7EGT7Wssu-49">
          <mxGeometry relative="1" as="geometry">
            <mxPoint x="1204.25" y="1668" as="sourcePoint" />
          </mxGeometry>
        </mxCell>
        <mxCell id="DIR0Ms290Oy7EGT7Wssu-59" value="return" style="html=1;verticalAlign=bottom;endArrow=open;dashed=1;endSize=8;exitX=0;exitY=0.95;rounded=0;" edge="1" parent="1" source="DIR0Ms290Oy7EGT7Wssu-57" target="DIR0Ms290Oy7EGT7Wssu-49">
          <mxGeometry relative="1" as="geometry">
            <mxPoint x="1204.25" y="1687.9499999999998" as="targetPoint" />
          </mxGeometry>
        </mxCell>
        <mxCell id="DIR0Ms290Oy7EGT7Wssu-60" value="POST&amp;nbsp;&amp;nbsp;/SBRelation/result" style="text;html=1;strokeColor=none;fillColor=none;align=center;verticalAlign=middle;whiteSpace=wrap;rounded=0;" vertex="1" parent="1">
          <mxGeometry x="90" y="1380" width="60" height="30" as="geometry" />
        </mxCell>
        <mxCell id="DIR0Ms290Oy7EGT7Wssu-61" value="POST&amp;nbsp;&amp;nbsp;/out/queryresult" style="text;html=1;strokeColor=none;fillColor=none;align=center;verticalAlign=middle;whiteSpace=wrap;rounded=0;" vertex="1" parent="1">
          <mxGeometry x="1300" y="1666" width="60" height="30" as="geometry" />
        </mxCell>
        <mxCell id="DIR0Ms290Oy7EGT7Wssu-64" value=":JobStarter" style="shape=umlLifeline;perimeter=lifelinePerimeter;whiteSpace=wrap;html=1;container=1;collapsible=0;recursiveResize=0;outlineConnect=0;" vertex="1" parent="1">
          <mxGeometry x="170" y="2080" width="100" height="580" as="geometry" />
        </mxCell>
        <mxCell id="DIR0Ms290Oy7EGT7Wssu-68" value="" style="html=1;points=[];perimeter=orthogonalPerimeter;" vertex="1" parent="DIR0Ms290Oy7EGT7Wssu-64">
          <mxGeometry x="44" y="120" width="10" height="60" as="geometry" />
        </mxCell>
        <mxCell id="DIR0Ms290Oy7EGT7Wssu-69" value="jobScheduler5" style="html=1;verticalAlign=bottom;startArrow=oval;endArrow=block;startSize=8;rounded=0;" edge="1" target="DIR0Ms290Oy7EGT7Wssu-68" parent="DIR0Ms290Oy7EGT7Wssu-64">
          <mxGeometry relative="1" as="geometry">
            <mxPoint x="-60" y="120" as="sourcePoint" />
          </mxGeometry>
        </mxCell>
        <mxCell id="DIR0Ms290Oy7EGT7Wssu-65" value=":JobNSRXXCommitForRobot" style="shape=umlLifeline;perimeter=lifelinePerimeter;whiteSpace=wrap;html=1;container=1;collapsible=0;recursiveResize=0;outlineConnect=0;" vertex="1" parent="1">
          <mxGeometry x="485" y="2080" width="100" height="300" as="geometry" />
        </mxCell>
        <mxCell id="DIR0Ms290Oy7EGT7Wssu-70" value="SpringJobScheduler" style="html=1;verticalAlign=bottom;endArrow=open;dashed=1;endSize=8;rounded=0;exitX=-0.387;exitY=0.872;exitDx=0;exitDy=0;exitPerimeter=0;" edge="1" parent="1" source="DIR0Ms290Oy7EGT7Wssu-68">
          <mxGeometry relative="1" as="geometry">
            <mxPoint x="70" y="2252" as="targetPoint" />
            <mxPoint x="210" y="2260" as="sourcePoint" />
          </mxGeometry>
        </mxCell>
        <mxCell id="DIR0Ms290Oy7EGT7Wssu-72" value=":AbstractElasticJobBase" style="shape=umlLifeline;perimeter=lifelinePerimeter;whiteSpace=wrap;html=1;container=1;collapsible=0;recursiveResize=0;outlineConnect=0;" vertex="1" parent="1">
          <mxGeometry x="320" y="2080" width="100" height="490" as="geometry" />
        </mxCell>
        <mxCell id="DIR0Ms290Oy7EGT7Wssu-75" value="" style="html=1;points=[];perimeter=orthogonalPerimeter;" vertex="1" parent="DIR0Ms290Oy7EGT7Wssu-72">
          <mxGeometry x="45" y="210" width="10" height="260" as="geometry" />
        </mxCell>
        <mxCell id="DIR0Ms290Oy7EGT7Wssu-79" value="" style="html=1;points=[];perimeter=orthogonalPerimeter;" vertex="1" parent="DIR0Ms290Oy7EGT7Wssu-72">
          <mxGeometry x="50" y="260" width="10" height="40" as="geometry" />
        </mxCell>
        <mxCell id="DIR0Ms290Oy7EGT7Wssu-80" value="fetchData" style="edgeStyle=orthogonalEdgeStyle;html=1;align=left;spacingLeft=2;endArrow=block;rounded=0;entryX=1;entryY=0;" edge="1" target="DIR0Ms290Oy7EGT7Wssu-79" parent="DIR0Ms290Oy7EGT7Wssu-72">
          <mxGeometry relative="1" as="geometry">
            <mxPoint x="55" y="240" as="sourcePoint" />
            <Array as="points">
              <mxPoint x="85" y="240" />
            </Array>
          </mxGeometry>
        </mxCell>
        <mxCell id="DIR0Ms290Oy7EGT7Wssu-76" value="process" style="html=1;verticalAlign=bottom;startArrow=oval;endArrow=block;startSize=8;rounded=0;" edge="1" target="DIR0Ms290Oy7EGT7Wssu-75" parent="1" source="DIR0Ms290Oy7EGT7Wssu-64">
          <mxGeometry relative="1" as="geometry">
            <mxPoint x="280" y="2230" as="sourcePoint" />
          </mxGeometry>
        </mxCell>
        <mxCell id="DIR0Ms290Oy7EGT7Wssu-81" value="" style="html=1;points=[];perimeter=orthogonalPerimeter;" vertex="1" parent="1">
          <mxGeometry x="370" y="2447" width="10" height="40" as="geometry" />
        </mxCell>
        <mxCell id="DIR0Ms290Oy7EGT7Wssu-82" value="processData" style="edgeStyle=orthogonalEdgeStyle;html=1;align=left;spacingLeft=2;endArrow=block;rounded=0;entryX=1;entryY=0;" edge="1" parent="1" target="DIR0Ms290Oy7EGT7Wssu-81">
          <mxGeometry relative="1" as="geometry">
            <mxPoint x="375" y="2426.9999999999995" as="sourcePoint" />
            <Array as="points">
              <mxPoint x="405" y="2427" />
            </Array>
          </mxGeometry>
        </mxCell>
      </root>
    </mxGraphModel>
  </diagram>
</mxfile>
